<svg width="15" height="15" viewBox="0 0 15 15" fill="none" xmlns="http://www.w3.org/2000/svg">
<g clip-path="url(#clip0_34_1437)">
<path d="M14.7686 7.5C14.7686 3.48633 11.5137 0.231445 7.5 0.231445C3.48633 0.231445 0.231445 3.48633 0.231445 7.5C0.231445 11.5137 3.48633 14.7686 7.5 14.7686C11.5137 14.7686 14.7686 11.5137 14.7686 7.5Z" fill="#474948"/>
<path d="M8.34952 7.50001L10.4735 5.03321C10.705 4.76368 10.6757 4.35938 10.4062 4.12501C10.1366 3.89356 9.73234 3.92286 9.50089 4.19239L7.49992 6.51563L5.50187 4.19532C5.27042 3.92579 4.8632 3.89649 4.59367 4.12794C4.32413 4.35938 4.29484 4.76661 4.52628 5.03614L6.65031 7.50001L4.52628 9.9668C4.29484 10.2363 4.32413 10.6406 4.59367 10.875C4.71378 10.9805 4.8632 11.0303 5.01261 11.0303C5.19425 11.0303 5.37296 10.9541 5.49894 10.8076L7.49699 8.48731L9.49503 10.8076C9.62101 10.9541 9.80265 11.0303 9.98136 11.0303C10.1308 11.0303 10.2802 10.9805 10.4003 10.875C10.6698 10.6436 10.6991 10.2363 10.4677 9.9668L8.34952 7.50001Z" fill="white"/>
</g>
<defs>
<clipPath id="clip0_34_1437">
<rect width="15" height="15" fill="white"/>
</clipPath>
</defs>
</svg>
