<svg width="8" height="8" viewBox="0 0 8 8" fill="none" xmlns="http://www.w3.org/2000/svg">
<path d="M7.80296 3.52481L4.47238 0.190088C4.40902 0.129369 4.33432 0.0817726 4.25256 0.0500298C4.09038 -0.0166766 3.90848 -0.0166766 3.74631 0.0500298C3.66454 0.0817726 3.58984 0.129369 3.52649 0.190088L0.1959 3.52481C0.133792 3.58699 0.0845254 3.66082 0.0509129 3.74206C0.0173003 3.82331 0 3.91039 0 3.99834C0 4.17595 0.0704672 4.34628 0.1959 4.47187C0.321332 4.59746 0.491455 4.66801 0.668843 4.66801C0.846231 4.66801 1.01635 4.59746 1.14179 4.47187L3.33331 2.27095V7.33306C3.33331 7.50994 3.40349 7.67958 3.52842 7.80466C3.65334 7.92973 3.82277 8 3.99943 8C4.1761 8 4.34553 7.92973 4.47045 7.80466C4.59537 7.67958 4.66555 7.50994 4.66555 7.33306V2.27095L6.85708 4.47187C6.919 4.53438 6.99267 4.584 7.07385 4.61786C7.15502 4.65172 7.24208 4.66915 7.33002 4.66915C7.41795 4.66915 7.50502 4.65172 7.58619 4.61786C7.66737 4.584 7.74104 4.53438 7.80296 4.47187C7.8654 4.40987 7.91495 4.3361 7.94877 4.25483C7.98259 4.17356 8 4.08638 8 3.99834C8 3.91029 7.98259 3.82312 7.94877 3.74185C7.91495 3.66057 7.8654 3.58681 7.80296 3.52481Z" fill="white"/>
</svg>
