<svg width="7" height="7" viewBox="0 0 7 7" fill="none" xmlns="http://www.w3.org/2000/svg">
<path d="M4 2.66667H6C6.17681 2.66667 6.34638 2.7369 6.4714 2.86193C6.59643 2.98695 6.66667 3.15652 6.66667 3.33333C6.66667 3.51014 6.59643 3.67971 6.4714 3.80474C6.34638 3.92976 6.17681 4 6 4H4V6C4 6.17681 3.92976 6.34638 3.80474 6.4714C3.67971 6.59643 3.51014 6.66667 3.33333 6.66667C3.15652 6.66667 2.98695 6.59643 2.86193 6.4714C2.73691 6.34638 2.66667 6.17681 2.66667 6V4H0.666667C0.489856 4 0.320287 3.92976 0.195262 3.80474C0.070238 3.67971 0 3.51014 0 3.33333C0 3.15652 0.070238 2.98695 0.195262 2.86193C0.320287 2.7369 0.489856 2.66667 0.666667 2.66667H2.66667V0.666667C2.66667 0.489856 2.73691 0.320287 2.86193 0.195262C2.98695 0.070238 3.15652 0 3.33333 0C3.51014 0 3.67971 0.070238 3.80474 0.195262C3.92976 0.320287 4 0.489856 4 0.666667V2.66667Z" fill="white"/>
</svg>
