<svg width="18" height="16" viewBox="0 0 18 16" fill="none" xmlns="http://www.w3.org/2000/svg">
<path d="M0.75 3.81636C6.25013 2.14303 11.7499 5.4897 17.25 3.81636C17.25 6.60536 17.25 9.39436 17.25 12.1834C11.7499 13.8567 6.25013 10.51 0.75 12.1834C0.75 9.3947 0.75 6.60536 0.75 3.81636Z" fill="#F4F4F5"/>
<path d="M0.75 3.81636C6.25013 2.14303 11.7499 5.4897 17.25 3.81636C17.25 5.21103 17.25 6.60536 17.25 8.00003C11.7499 9.67336 6.25013 6.3267 0.75 8.00003C0.75 6.60536 0.75 5.21103 0.75 3.81636Z" fill="#FF0000"/>
<path d="M0.75 3.81636C6.25013 2.14303 11.7499 5.4897 17.25 3.81636C17.25 6.60536 17.25 9.39436 17.25 12.1834C11.7499 13.8567 6.25013 10.51 0.75 12.1834C0.75 9.3947 0.75 6.60536 0.75 3.81636Z" fill="url(#paint0_linear_94_1286)"/>
<path opacity="0.7" d="M0.75 3.81636C6.25013 2.14303 11.7499 5.4897 17.25 3.81636C17.25 6.60536 17.25 9.39436 17.25 12.1834C11.7499 13.8567 6.25013 10.51 0.75 12.1834C0.75 9.3947 0.75 6.60536 0.75 3.81636Z" fill="url(#paint1_linear_94_1286)"/>
<path opacity="0.7" d="M0.75 3.81636C6.25013 2.14303 11.7499 5.4897 17.25 3.81636C17.25 6.60536 17.25 9.39436 17.25 12.1834C11.7499 13.8567 6.25013 10.51 0.75 12.1834C0.75 9.3947 0.75 6.60536 0.75 3.81636Z" fill="url(#paint2_linear_94_1286)"/>
<defs>
<linearGradient id="paint0_linear_94_1286" x1="0.75" y1="8.00003" x2="17.25" y2="8.00003" gradientUnits="userSpaceOnUse">
<stop offset="0.039" stop-color="#FFF2F2" stop-opacity="0"/>
<stop offset="0.042" stop-color="#FFF2F2" stop-opacity="0.01"/>
<stop offset="0.115" stop-color="#FFF2F2" stop-opacity="0.2"/>
<stop offset="0.224" stop-color="#FFF2F2" stop-opacity="0.38"/>
<stop offset="0.351" stop-color="#FFF2F2" stop-opacity="0.2"/>
<stop offset="0.466" stop-color="#FFF2F2" stop-opacity="0"/>
<stop offset="0.594" stop-color="#FFF2F2" stop-opacity="0"/>
<stop offset="0.805" stop-color="#FFF2F2" stop-opacity="0.28"/>
<stop offset="0.961" stop-color="#FFF2F2" stop-opacity="0"/>
</linearGradient>
<linearGradient id="paint1_linear_94_1286" x1="0.75" y1="8.00003" x2="17.25" y2="8.00003" gradientUnits="userSpaceOnUse">
<stop stop-color="#270000"/>
<stop offset="0.177" stop-color="#270000" stop-opacity="0"/>
<stop offset="0.359" stop-color="#090000" stop-opacity="0.02"/>
<stop offset="0.512" stop-color="#270000" stop-opacity="0.5"/>
<stop offset="0.739" stop-color="#270000" stop-opacity="0.02"/>
<stop offset="0.85" stop-color="#270000" stop-opacity="0.02"/>
<stop offset="1" stop-color="#270000" stop-opacity="0.6"/>
</linearGradient>
<linearGradient id="paint2_linear_94_1286" x1="9" y1="1.54603" x2="9" y2="15.3617" gradientUnits="userSpaceOnUse">
<stop offset="0.39" stop-color="#270000" stop-opacity="0"/>
<stop offset="0.589" stop-color="#270000" stop-opacity="0"/>
<stop offset="1" stop-color="#270000" stop-opacity="0.6"/>
</linearGradient>
</defs>
</svg>
