<svg width="8" height="11" viewBox="0 0 8 11" fill="none" xmlns="http://www.w3.org/2000/svg">
<path d="M0.927436 0.000497597C0.736093 -0.00591384 0.547813 0.0497759 0.390744 0.159242C0.233675 0.268707 0.116253 0.426069 0.0560327 0.607802C-0.00418769 0.789535 -0.00397223 0.985878 0.056647 1.16748C0.117266 1.34908 0.235033 1.50618 0.392342 1.6153L5.58916 5.32719L0.392342 9.03908C0.293888 9.1052 0.209699 9.1904 0.144757 9.28964C0.0798146 9.38888 0.0354395 9.50013 0.0142575 9.61682C-0.00692445 9.73351 -0.00448273 9.85326 0.0214382 9.96899C0.0473591 10.0847 0.0962322 10.1941 0.165165 10.2906C0.234099 10.3871 0.321691 10.4688 0.422759 10.5308C0.523826 10.5929 0.636315 10.634 0.753567 10.6519C0.87082 10.6697 0.990454 10.6638 1.10539 10.6345C1.22032 10.6053 1.32822 10.5533 1.4227 10.4816L7.6291 6.04844C7.74383 5.96639 7.83733 5.85815 7.90184 5.73271C7.96635 5.60727 8 5.46825 8 5.32719C8 5.18614 7.96635 5.04712 7.90184 4.92168C7.83733 4.79624 7.74383 4.68799 7.6291 4.60594L1.4227 0.172801C1.27876 0.0667494 1.10612 0.00668792 0.927436 0.000497597Z" fill="#474948"/>
</svg>
