<svg width="25" height="25" viewBox="0 0 25 25" fill="none" xmlns="http://www.w3.org/2000/svg">
<path d="M23.1772 7.91666L21.9272 6.66666C17.5001 2.34374 6.87508 2.96874 3.073 6.66666L1.823 7.91666C1.45841 8.28124 1.45841 8.80208 1.823 9.16666L4.323 11.6146C4.68758 11.9792 5.20841 11.9792 5.573 11.6146L8.33341 8.95833L8.12508 6.04166C9.0105 5.15624 15.9897 5.15624 16.8751 6.04166L16.7188 9.01041L19.3751 11.5625C19.7397 11.9271 20.2605 11.9271 20.6251 11.5625L23.1251 9.11458C23.5417 8.80208 23.5417 8.22916 23.1772 7.91666Z" fill="#009688"/>
<path d="M10.9375 15.1042C10.9375 14.2188 11.6146 13.5417 12.5 13.5417C13.3854 13.5417 14.0625 14.2188 14.0625 15.1042C14.0625 15.9896 13.3854 16.6667 12.5 16.6667C11.6146 16.6667 10.9375 15.9896 10.9375 15.1042ZM17.1875 16.6667C18.0729 16.6667 18.75 15.9896 18.75 15.1042C18.75 14.2188 18.0729 13.5417 17.1875 13.5417C16.3021 13.5417 15.625 14.2188 15.625 15.1042C15.625 15.9896 16.3021 16.6667 17.1875 16.6667ZM7.8125 16.6667C8.69792 16.6667 9.375 15.9896 9.375 15.1042C9.375 14.2188 8.69792 13.5417 7.8125 13.5417C6.92708 13.5417 6.25 14.2188 6.25 15.1042C6.25 15.9896 6.92708 16.6667 7.8125 16.6667ZM12.5 21.3542C13.3854 21.3542 14.0625 20.6771 14.0625 19.7917C14.0625 18.9063 13.3854 18.2292 12.5 18.2292C11.6146 18.2292 10.9375 18.9063 10.9375 19.7917C10.9375 20.6771 11.6146 21.3542 12.5 21.3542ZM17.1875 21.3542C18.0729 21.3542 18.75 20.6771 18.75 19.7917C18.75 18.9063 18.0729 18.2292 17.1875 18.2292C16.3021 18.2292 15.625 18.9063 15.625 19.7917C15.625 20.6771 16.3021 21.3542 17.1875 21.3542ZM7.8125 21.3542C8.69792 21.3542 9.375 20.6771 9.375 19.7917C9.375 18.9063 8.69792 18.2292 7.8125 18.2292C6.92708 18.2292 6.25 18.9063 6.25 19.7917C6.25 20.6771 6.92708 21.3542 7.8125 21.3542Z" fill="#2196F3"/>
</svg>
