<svg width="15" height="15" viewBox="0 0 15 15" fill="none" xmlns="http://www.w3.org/2000/svg">
<path d="M14.97 5.66416C14.9013 5.43566 14.7096 5.26676 14.4823 5.23199L10.034 4.55393L8.04308 0.324127C7.83949 -0.108042 7.16242 -0.108042 6.95646 0.324127L4.96788 4.55393L0.519597 5.23199C0.29233 5.26676 0.100574 5.43317 0.0295529 5.66416C-0.0414677 5.89515 0.0177162 6.14849 0.183431 6.3149L3.40305 9.60834L2.64312 14.2554C2.60525 14.4938 2.69757 14.7373 2.88459 14.8788C3.07162 15.0204 3.31782 15.0403 3.52142 14.926L7.50095 12.7329L11.4781 14.926C11.5681 14.9757 11.6651 14.998 11.7622 14.998C11.8877 14.998 12.0108 14.9583 12.1173 14.8788C12.3043 14.7348 12.3967 14.4938 12.3588 14.2554L11.5989 9.60834L14.8185 6.3149C14.9842 6.14601 15.041 5.89515 14.97 5.66416Z" fill="#EB6505"/>
</svg>
