<svg width="22" height="23" viewBox="0 0 22 23" fill="none" xmlns="http://www.w3.org/2000/svg">
<path d="M19.521 18.6615L16.1121 15.4106C17.2424 13.6094 17.7055 11.3979 17.4061 9.23091C17.1067 7.0639 16.0675 5.10605 14.5023 3.75994C12.9371 2.41383 10.9648 1.78178 8.99093 1.99375C7.01708 2.20571 5.19172 3.24559 3.89018 4.89955C2.58863 6.55351 1.90984 8.69584 1.99336 10.886C2.07689 13.0762 2.91639 15.1478 4.33925 16.6748C5.76211 18.2018 7.66018 19.0682 9.64316 19.0958C11.6261 19.1233 13.5433 18.31 15.0005 16.8231L18.3836 20.0761C18.4691 20.159 18.5686 20.2223 18.6764 20.2625C18.7842 20.3027 18.8981 20.3189 19.0116 20.3101C19.125 20.3014 19.2358 20.2679 19.3375 20.2116C19.4392 20.1553 19.5298 20.0774 19.6041 19.9822C19.7479 19.7931 19.8196 19.5497 19.804 19.3033C19.7885 19.0569 19.687 18.8268 19.521 18.6615ZM10.1787 17.1941C8.98873 17.2856 7.80094 16.9851 6.76551 16.3304C5.73009 15.6757 4.89354 14.6964 4.36164 13.5162C3.82975 12.336 3.62641 11.008 3.77732 9.70001C3.92824 8.39206 4.42665 7.16296 5.20951 6.16812C5.99237 5.17329 7.02453 4.4574 8.17546 4.111C9.32639 3.76459 10.5444 3.80323 11.6755 4.22201C12.8065 4.6408 13.7999 5.42093 14.5298 6.46375C15.2598 7.50657 15.6936 8.76524 15.7765 10.0806C15.8875 11.8444 15.3601 13.5848 14.3104 14.9188C13.2606 16.2529 11.7744 17.0713 10.1787 17.1941Z" fill="#1C1C1C"/>
</svg>
